<?xml version="1.0" encoding="UTF-8" standalone="no"?>
<!DOCTYPE svg PUBLIC "-//W3C//DTD SVG 1.1//EN"
 "http://www.w3.org/Graphics/SVG/1.1/DTD/svg11.dtd">
<!-- Generated by graphviz version 2.26.3 (20100126.1600)
 -->
<!-- Title: controllers_diagram Pages: 1 -->
<svg width="1658pt" height="1480pt"
 viewBox="0.00 0.00 1658.00 1479.61" xmlns="http://www.w3.org/2000/svg" xmlns:xlink="http://www.w3.org/1999/xlink">
<g id="graph1" class="graph" transform="scale(1 1) rotate(0) translate(4 1475.61)">
<title>controllers_diagram</title>
<polygon fill="white" stroke="white" points="-4,5 -4,-1475.61 1655,-1475.61 1655,5 -4,5"/>
<!-- _diagram_info -->
<g id="node1" class="node"><title>_diagram_info</title>
<text text-anchor="start" x="1400" y="-73.3" font-family="Times Roman,serif" font-size="13.00">Controllers diagram</text>
<text text-anchor="start" x="1400" y="-57.3" font-family="Times Roman,serif" font-size="13.00">Date: Oct 09 2012 &#45; 15:50</text>
<text text-anchor="start" x="1400" y="-41.3" font-family="Times Roman,serif" font-size="13.00">Migration version: 20120411081345</text>
<text text-anchor="start" x="1400" y="-25.3" font-family="Times Roman,serif" font-size="13.00">Generated by RailRoady 1.1.0</text>
<text text-anchor="start" x="1400" y="-9.3" font-family="Times Roman,serif" font-size="13.00">http://railroady.prestonlee.com</text>
</g>
<!-- AdminsController -->
<g id="node2" class="node"><title>AdminsController</title>
<polyline fill="none" stroke="black" points="60.341,-773.897 287.341,-773.897 "/>
<path fill="none" stroke="black" d="M287.341,-773.897C293.341,-773.897 299.341,-779.897 299.341,-785.897"/>
<polyline fill="none" stroke="black" points="299.341,-785.897 299.341,-911.897 "/>
<path fill="none" stroke="black" d="M299.341,-911.897C299.341,-917.897 293.341,-923.897 287.341,-923.897"/>
<polyline fill="none" stroke="black" points="287.341,-923.897 60.341,-923.897 "/>
<path fill="none" stroke="black" d="M60.341,-923.897C54.341,-923.897 48.341,-917.897 48.341,-911.897"/>
<polyline fill="none" stroke="black" points="48.341,-911.897 48.341,-785.897 "/>
<path fill="none" stroke="black" d="M48.341,-785.897C48.341,-779.897 54.341,-773.897 60.341,-773.897"/>
<text text-anchor="middle" x="173.841" y="-907.297" font-family="Times Roman,serif" font-size="14.00">AdminsController</text>
<polyline fill="none" stroke="black" points="48.341,-898.897 299.341,-898.897 "/>
<text text-anchor="start" x="56.341" y="-882.297" font-family="Times Roman,serif" font-size="14.00">_one_time_conditions_valid_14?</text>
<text text-anchor="start" x="56.341" y="-865.297" font-family="Times Roman,serif" font-size="14.00">create</text>
<text text-anchor="start" x="56.341" y="-848.297" font-family="Times Roman,serif" font-size="14.00">new</text>
<polyline fill="none" stroke="black" points="48.341,-839.897 299.341,-839.897 "/>
<polyline fill="none" stroke="black" points="48.341,-815.897 299.341,-815.897 "/>
<text text-anchor="start" x="56.341" y="-799.297" font-family="Times Roman,serif" font-size="14.00">_layout</text>
<text text-anchor="start" x="56.341" y="-782.297" font-family="Times Roman,serif" font-size="14.00">require_no_admin</text>
</g>
<!-- ApplicationController -->
<g id="node3" class="node"><title>ApplicationController</title>
<polyline fill="none" stroke="black" points="526.412,-541.725 753.412,-541.725 "/>
<path fill="none" stroke="black" d="M753.412,-541.725C759.412,-541.725 765.412,-547.725 765.412,-553.725"/>
<polyline fill="none" stroke="black" points="765.412,-553.725 765.412,-850.725 "/>
<path fill="none" stroke="black" d="M765.412,-850.725C765.412,-856.725 759.412,-862.725 753.412,-862.725"/>
<polyline fill="none" stroke="black" points="753.412,-862.725 526.412,-862.725 "/>
<path fill="none" stroke="black" d="M526.412,-862.725C520.412,-862.725 514.412,-856.725 514.412,-850.725"/>
<polyline fill="none" stroke="black" points="514.412,-850.725 514.412,-553.725 "/>
<path fill="none" stroke="black" d="M514.412,-553.725C514.412,-547.725 520.412,-541.725 526.412,-541.725"/>
<text text-anchor="middle" x="639.912" y="-846.125" font-family="Times Roman,serif" font-size="14.00">ApplicationController</text>
<polyline fill="none" stroke="black" points="514.412,-837.725 765.412,-837.725 "/>
<text text-anchor="start" x="522.412" y="-821.125" font-family="Times Roman,serif" font-size="14.00">_one_time_conditions_valid_10?</text>
<text text-anchor="start" x="522.412" y="-804.125" font-family="Times Roman,serif" font-size="14.00">_one_time_conditions_valid_12?</text>
<text text-anchor="start" x="522.412" y="-787.125" font-family="Times Roman,serif" font-size="14.00">_one_time_conditions_valid_8?</text>
<text text-anchor="start" x="522.412" y="-770.125" font-family="Times Roman,serif" font-size="14.00">require_delete_permission</text>
<text text-anchor="start" x="522.412" y="-753.125" font-family="Times Roman,serif" font-size="14.00">require_read_permission</text>
<text text-anchor="start" x="522.412" y="-736.125" font-family="Times Roman,serif" font-size="14.00">require_update_permission</text>
<polyline fill="none" stroke="black" points="514.412,-727.725 765.412,-727.725 "/>
<text text-anchor="start" x="522.412" y="-711.125" font-family="Times Roman,serif" font-size="14.00">clipboard</text>
<text text-anchor="start" x="522.412" y="-694.125" font-family="Times Roman,serif" font-size="14.00">current_user</text>
<text text-anchor="start" x="522.412" y="-677.125" font-family="Times Roman,serif" font-size="14.00">get_folder_or_redirect</text>
<text text-anchor="start" x="522.412" y="-660.125" font-family="Times Roman,serif" font-size="14.00">require_admin</text>
<text text-anchor="start" x="522.412" y="-643.125" font-family="Times Roman,serif" font-size="14.00">require_admin_in_system</text>
<text text-anchor="start" x="522.412" y="-626.125" font-family="Times Roman,serif" font-size="14.00">require_create_permission</text>
<text text-anchor="start" x="522.412" y="-609.125" font-family="Times Roman,serif" font-size="14.00">require_existing_target_folder</text>
<text text-anchor="start" x="522.412" y="-592.125" font-family="Times Roman,serif" font-size="14.00">require_login</text>
<text text-anchor="start" x="522.412" y="-575.125" font-family="Times Roman,serif" font-size="14.00">signed_in?</text>
<polyline fill="none" stroke="black" points="514.412,-566.725 765.412,-566.725 "/>
<text text-anchor="start" x="522.412" y="-550.125" font-family="Times Roman,serif" font-size="14.00">_layout</text>
</g>
<!-- ApplicationController&#45;&gt;AdminsController -->
<g id="edge2" class="edge"><title>ApplicationController&#45;&gt;AdminsController</title>
<path fill="none" stroke="black" d="M514.4,-741.723C447.805,-762.68 366.205,-788.36 299.577,-809.328"/>
</g>
<!-- ClipboardController -->
<g id="node4" class="node"><title>ClipboardController</title>
<polyline fill="none" stroke="black" points="526.462,-1.5 753.462,-1.5 "/>
<path fill="none" stroke="black" d="M753.462,-1.5C759.462,-1.5 765.462,-7.5 765.462,-13.5"/>
<polyline fill="none" stroke="black" points="765.462,-13.5 765.462,-343.5 "/>
<path fill="none" stroke="black" d="M765.462,-343.5C765.462,-349.5 759.462,-355.5 753.462,-355.5"/>
<polyline fill="none" stroke="black" points="753.462,-355.5 526.462,-355.5 "/>
<path fill="none" stroke="black" d="M526.462,-355.5C520.462,-355.5 514.462,-349.5 514.462,-343.5"/>
<polyline fill="none" stroke="black" points="514.462,-343.5 514.462,-13.5 "/>
<path fill="none" stroke="black" d="M514.462,-13.5C514.462,-7.5 520.462,-1.5 526.462,-1.5"/>
<text text-anchor="middle" x="639.962" y="-338.9" font-family="Times Roman,serif" font-size="14.00">ClipboardController</text>
<polyline fill="none" stroke="black" points="514.462,-330.5 765.462,-330.5 "/>
<text text-anchor="start" x="522.462" y="-313.9" font-family="Times Roman,serif" font-size="14.00">_one_time_conditions_valid_16?</text>
<text text-anchor="start" x="522.462" y="-296.9" font-family="Times Roman,serif" font-size="14.00">_one_time_conditions_valid_20?</text>
<text text-anchor="start" x="522.462" y="-279.9" font-family="Times Roman,serif" font-size="14.00">_one_time_conditions_valid_24?</text>
<text text-anchor="start" x="522.462" y="-262.9" font-family="Times Roman,serif" font-size="14.00">_one_time_conditions_valid_28?</text>
<text text-anchor="start" x="522.462" y="-245.9" font-family="Times Roman,serif" font-size="14.00">_one_time_conditions_valid_32?</text>
<text text-anchor="start" x="522.462" y="-228.9" font-family="Times Roman,serif" font-size="14.00">_one_time_conditions_valid_36?</text>
<text text-anchor="start" x="522.462" y="-211.9" font-family="Times Roman,serif" font-size="14.00">copy</text>
<text text-anchor="start" x="522.462" y="-194.9" font-family="Times Roman,serif" font-size="14.00">create</text>
<text text-anchor="start" x="522.462" y="-177.9" font-family="Times Roman,serif" font-size="14.00">destroy</text>
<text text-anchor="start" x="522.462" y="-160.9" font-family="Times Roman,serif" font-size="14.00">move</text>
<text text-anchor="start" x="522.462" y="-143.9" font-family="Times Roman,serif" font-size="14.00">require_delete_permission</text>
<text text-anchor="start" x="522.462" y="-126.9" font-family="Times Roman,serif" font-size="14.00">require_read_permission</text>
<text text-anchor="start" x="522.462" y="-109.9" font-family="Times Roman,serif" font-size="14.00">reset</text>
<polyline fill="none" stroke="black" points="514.462,-101.5 765.462,-101.5 "/>
<polyline fill="none" stroke="black" points="514.462,-77.5 765.462,-77.5 "/>
<text text-anchor="start" x="522.462" y="-60.9" font-family="Times Roman,serif" font-size="14.00">_layout</text>
<text text-anchor="start" x="522.462" y="-43.9" font-family="Times Roman,serif" font-size="14.00">paste</text>
<text text-anchor="start" x="522.462" y="-26.9" font-family="Times Roman,serif" font-size="14.00">require_existing_item</text>
<text text-anchor="start" x="522.462" y="-9.9" font-family="Times Roman,serif" font-size="14.00">require_target_is_not_child</text>
</g>
<!-- ApplicationController&#45;&gt;ClipboardController -->
<g id="edge4" class="edge"><title>ApplicationController&#45;&gt;ClipboardController</title>
<path fill="none" stroke="black" d="M639.927,-541.531C639.933,-482.747 639.939,-415.925 639.945,-355.774"/>
</g>
<!-- FilesController -->
<g id="node5" class="node"><title>FilesController</title>
<polyline fill="none" stroke="black" points="386.732,-1066.61 613.732,-1066.61 "/>
<path fill="none" stroke="black" d="M613.732,-1066.61C619.732,-1066.61 625.732,-1072.61 625.732,-1078.61"/>
<polyline fill="none" stroke="black" points="625.732,-1078.61 625.732,-1374.61 "/>
<path fill="none" stroke="black" d="M625.732,-1374.61C625.732,-1380.61 619.732,-1386.61 613.732,-1386.61"/>
<polyline fill="none" stroke="black" points="613.732,-1386.61 386.732,-1386.61 "/>
<path fill="none" stroke="black" d="M386.732,-1386.61C380.732,-1386.61 374.732,-1380.61 374.732,-1374.61"/>
<polyline fill="none" stroke="black" points="374.732,-1374.61 374.732,-1078.61 "/>
<path fill="none" stroke="black" d="M374.732,-1078.61C374.732,-1072.61 380.732,-1066.61 386.732,-1066.61"/>
<text text-anchor="middle" x="500.232" y="-1370.01" font-family="Times Roman,serif" font-size="14.00">FilesController</text>
<polyline fill="none" stroke="black" points="374.732,-1361.61 625.732,-1361.61 "/>
<text text-anchor="start" x="382.732" y="-1345.01" font-family="Times Roman,serif" font-size="14.00">_one_time_conditions_valid_40?</text>
<text text-anchor="start" x="382.732" y="-1328.01" font-family="Times Roman,serif" font-size="14.00">_one_time_conditions_valid_44?</text>
<text text-anchor="start" x="382.732" y="-1311.01" font-family="Times Roman,serif" font-size="14.00">_one_time_conditions_valid_48?</text>
<text text-anchor="start" x="382.732" y="-1294.01" font-family="Times Roman,serif" font-size="14.00">_one_time_conditions_valid_52?</text>
<text text-anchor="start" x="382.732" y="-1277.01" font-family="Times Roman,serif" font-size="14.00">_one_time_conditions_valid_56?</text>
<text text-anchor="start" x="382.732" y="-1260.01" font-family="Times Roman,serif" font-size="14.00">_one_time_conditions_valid_60?</text>
<text text-anchor="start" x="382.732" y="-1243.01" font-family="Times Roman,serif" font-size="14.00">create</text>
<text text-anchor="start" x="382.732" y="-1226.01" font-family="Times Roman,serif" font-size="14.00">destroy</text>
<text text-anchor="start" x="382.732" y="-1209.01" font-family="Times Roman,serif" font-size="14.00">edit</text>
<text text-anchor="start" x="382.732" y="-1192.01" font-family="Times Roman,serif" font-size="14.00">exists</text>
<text text-anchor="start" x="382.732" y="-1175.01" font-family="Times Roman,serif" font-size="14.00">new</text>
<text text-anchor="start" x="382.732" y="-1158.01" font-family="Times Roman,serif" font-size="14.00">show</text>
<text text-anchor="start" x="382.732" y="-1141.01" font-family="Times Roman,serif" font-size="14.00">update</text>
<polyline fill="none" stroke="black" points="374.732,-1132.61 625.732,-1132.61 "/>
<polyline fill="none" stroke="black" points="374.732,-1108.61 625.732,-1108.61 "/>
<text text-anchor="start" x="382.732" y="-1092.01" font-family="Times Roman,serif" font-size="14.00">_layout</text>
<text text-anchor="start" x="382.732" y="-1075.01" font-family="Times Roman,serif" font-size="14.00">require_existing_file</text>
</g>
<!-- ApplicationController&#45;&gt;FilesController -->
<g id="edge6" class="edge"><title>ApplicationController&#45;&gt;FilesController</title>
<path fill="none" stroke="black" d="M597.149,-862.765C579.944,-927.357 560.144,-1001.69 542.944,-1066.26"/>
</g>
<!-- FoldersController -->
<g id="node6" class="node"><title>FoldersController</title>
<polyline fill="none" stroke="black" points="1031.67,-1082.11 1258.67,-1082.11 "/>
<path fill="none" stroke="black" d="M1258.67,-1082.11C1264.67,-1082.11 1270.67,-1088.11 1270.67,-1094.11"/>
<polyline fill="none" stroke="black" points="1270.67,-1094.11 1270.67,-1458.11 "/>
<path fill="none" stroke="black" d="M1270.67,-1458.11C1270.67,-1464.11 1264.67,-1470.11 1258.67,-1470.11"/>
<polyline fill="none" stroke="black" points="1258.67,-1470.11 1031.67,-1470.11 "/>
<path fill="none" stroke="black" d="M1031.67,-1470.11C1025.67,-1470.11 1019.67,-1464.11 1019.67,-1458.11"/>
<polyline fill="none" stroke="black" points="1019.67,-1458.11 1019.67,-1094.11 "/>
<path fill="none" stroke="black" d="M1019.67,-1094.11C1019.67,-1088.11 1025.67,-1082.11 1031.67,-1082.11"/>
<text text-anchor="middle" x="1145.17" y="-1453.51" font-family="Times Roman,serif" font-size="14.00">FoldersController</text>
<polyline fill="none" stroke="black" points="1019.67,-1445.11 1270.67,-1445.11 "/>
<text text-anchor="start" x="1027.67" y="-1428.51" font-family="Times Roman,serif" font-size="14.00">_one_time_conditions_valid_64?</text>
<text text-anchor="start" x="1027.67" y="-1411.51" font-family="Times Roman,serif" font-size="14.00">_one_time_conditions_valid_68?</text>
<text text-anchor="start" x="1027.67" y="-1394.51" font-family="Times Roman,serif" font-size="14.00">_one_time_conditions_valid_72?</text>
<text text-anchor="start" x="1027.67" y="-1377.51" font-family="Times Roman,serif" font-size="14.00">_one_time_conditions_valid_76?</text>
<text text-anchor="start" x="1027.67" y="-1360.51" font-family="Times Roman,serif" font-size="14.00">_one_time_conditions_valid_80?</text>
<text text-anchor="start" x="1027.67" y="-1343.51" font-family="Times Roman,serif" font-size="14.00">_one_time_conditions_valid_84?</text>
<text text-anchor="start" x="1027.67" y="-1326.51" font-family="Times Roman,serif" font-size="14.00">_one_time_conditions_valid_88?</text>
<text text-anchor="start" x="1027.67" y="-1309.51" font-family="Times Roman,serif" font-size="14.00">create</text>
<text text-anchor="start" x="1027.67" y="-1292.51" font-family="Times Roman,serif" font-size="14.00">destroy</text>
<text text-anchor="start" x="1027.67" y="-1275.51" font-family="Times Roman,serif" font-size="14.00">edit</text>
<text text-anchor="start" x="1027.67" y="-1258.51" font-family="Times Roman,serif" font-size="14.00">index</text>
<text text-anchor="start" x="1027.67" y="-1241.51" font-family="Times Roman,serif" font-size="14.00">new</text>
<text text-anchor="start" x="1027.67" y="-1224.51" font-family="Times Roman,serif" font-size="14.00">show</text>
<text text-anchor="start" x="1027.67" y="-1207.51" font-family="Times Roman,serif" font-size="14.00">update</text>
<polyline fill="none" stroke="black" points="1019.67,-1199.11 1270.67,-1199.11 "/>
<polyline fill="none" stroke="black" points="1019.67,-1175.11 1270.67,-1175.11 "/>
<text text-anchor="start" x="1027.67" y="-1158.51" font-family="Times Roman,serif" font-size="14.00">_layout</text>
<text text-anchor="start" x="1027.67" y="-1141.51" font-family="Times Roman,serif" font-size="14.00">require_delete_permission</text>
<text text-anchor="start" x="1027.67" y="-1124.51" font-family="Times Roman,serif" font-size="14.00">require_delete_permissions_for</text>
<text text-anchor="start" x="1027.67" y="-1107.51" font-family="Times Roman,serif" font-size="14.00">require_existing_folder</text>
<text text-anchor="start" x="1027.67" y="-1090.51" font-family="Times Roman,serif" font-size="14.00">require_folder_isnt_root_folder</text>
</g>
<!-- ApplicationController&#45;&gt;FoldersController -->
<g id="edge8" class="edge"><title>ApplicationController&#45;&gt;FoldersController</title>
<path fill="none" stroke="black" d="M765.455,-844.82C842.904,-932.789 941.901,-1045.23 1019.39,-1133.25"/>
</g>
<!-- GroupsController -->
<g id="node7" class="node"><title>GroupsController</title>
<polyline fill="none" stroke="black" points="661.412,-1074.55 906.412,-1074.55 "/>
<path fill="none" stroke="black" d="M906.412,-1074.55C912.412,-1074.55 918.412,-1080.55 918.412,-1086.55"/>
<polyline fill="none" stroke="black" points="918.412,-1086.55 918.412,-1331.55 "/>
<path fill="none" stroke="black" d="M918.412,-1331.55C918.412,-1337.55 912.412,-1343.55 906.412,-1343.55"/>
<polyline fill="none" stroke="black" points="906.412,-1343.55 661.412,-1343.55 "/>
<path fill="none" stroke="black" d="M661.412,-1343.55C655.412,-1343.55 649.412,-1337.55 649.412,-1331.55"/>
<polyline fill="none" stroke="black" points="649.412,-1331.55 649.412,-1086.55 "/>
<path fill="none" stroke="black" d="M649.412,-1086.55C649.412,-1080.55 655.412,-1074.55 661.412,-1074.55"/>
<text text-anchor="middle" x="783.912" y="-1326.95" font-family="Times Roman,serif" font-size="14.00">GroupsController</text>
<polyline fill="none" stroke="black" points="649.412,-1318.55 918.412,-1318.55 "/>
<text text-anchor="start" x="657.412" y="-1301.95" font-family="Times Roman,serif" font-size="14.00">_one_time_conditions_valid_92?</text>
<text text-anchor="start" x="657.412" y="-1284.95" font-family="Times Roman,serif" font-size="14.00">_one_time_conditions_valid_94?</text>
<text text-anchor="start" x="657.412" y="-1267.95" font-family="Times Roman,serif" font-size="14.00">_one_time_conditions_valid_98?</text>
<text text-anchor="start" x="657.412" y="-1250.95" font-family="Times Roman,serif" font-size="14.00">create</text>
<text text-anchor="start" x="657.412" y="-1233.95" font-family="Times Roman,serif" font-size="14.00">destroy</text>
<text text-anchor="start" x="657.412" y="-1216.95" font-family="Times Roman,serif" font-size="14.00">edit</text>
<text text-anchor="start" x="657.412" y="-1199.95" font-family="Times Roman,serif" font-size="14.00">index</text>
<text text-anchor="start" x="657.412" y="-1182.95" font-family="Times Roman,serif" font-size="14.00">new</text>
<text text-anchor="start" x="657.412" y="-1165.95" font-family="Times Roman,serif" font-size="14.00">update</text>
<polyline fill="none" stroke="black" points="649.412,-1157.55 918.412,-1157.55 "/>
<polyline fill="none" stroke="black" points="649.412,-1133.55 918.412,-1133.55 "/>
<text text-anchor="start" x="657.412" y="-1116.95" font-family="Times Roman,serif" font-size="14.00">_layout</text>
<text text-anchor="start" x="657.412" y="-1099.95" font-family="Times Roman,serif" font-size="14.00">require_existing_group</text>
<text text-anchor="start" x="657.412" y="-1082.95" font-family="Times Roman,serif" font-size="14.00">require_group_isnt_admins_group</text>
</g>
<!-- ApplicationController&#45;&gt;GroupsController -->
<g id="edge10" class="edge"><title>ApplicationController&#45;&gt;GroupsController</title>
<path fill="none" stroke="black" d="M685.573,-862.935C704.891,-930.924 727.142,-1009.24 745.587,-1074.16"/>
</g>
<!-- PermissionsController -->
<g id="node8" class="node"><title>PermissionsController</title>
<polyline fill="none" stroke="black" points="60.8311,-39.9127 296.831,-39.9127 "/>
<path fill="none" stroke="black" d="M296.831,-39.9127C302.831,-39.9127 308.831,-45.9127 308.831,-51.9127"/>
<polyline fill="none" stroke="black" points="308.831,-51.9127 308.831,-160.913 "/>
<path fill="none" stroke="black" d="M308.831,-160.913C308.831,-166.913 302.831,-172.913 296.831,-172.913"/>
<polyline fill="none" stroke="black" points="296.831,-172.913 60.8311,-172.913 "/>
<path fill="none" stroke="black" d="M60.8311,-172.913C54.8311,-172.913 48.8311,-166.913 48.8311,-160.913"/>
<polyline fill="none" stroke="black" points="48.8311,-160.913 48.8311,-51.9127 "/>
<path fill="none" stroke="black" d="M48.8311,-51.9127C48.8311,-45.9127 54.8311,-39.9127 60.8311,-39.9127"/>
<text text-anchor="middle" x="178.831" y="-156.313" font-family="Times Roman,serif" font-size="14.00">PermissionsController</text>
<polyline fill="none" stroke="black" points="48.8311,-147.913 308.831,-147.913 "/>
<text text-anchor="start" x="56.8311" y="-131.313" font-family="Times Roman,serif" font-size="14.00">_one_time_conditions_valid_102?</text>
<text text-anchor="start" x="56.8311" y="-114.313" font-family="Times Roman,serif" font-size="14.00">update_multiple</text>
<polyline fill="none" stroke="black" points="48.8311,-105.913 308.831,-105.913 "/>
<polyline fill="none" stroke="black" points="48.8311,-81.9127 308.831,-81.9127 "/>
<text text-anchor="start" x="56.8311" y="-65.3127" font-family="Times Roman,serif" font-size="14.00">_layout</text>
<text text-anchor="start" x="56.8311" y="-48.3127" font-family="Times Roman,serif" font-size="14.00">update_children</text>
</g>
<!-- ApplicationController&#45;&gt;PermissionsController -->
<g id="edge12" class="edge"><title>ApplicationController&#45;&gt;PermissionsController</title>
<path fill="none" stroke="black" d="M515.44,-541.382C422.09,-420.754 299.069,-261.786 230.566,-173.265"/>
</g>
<!-- ResetPasswordController -->
<g id="node9" class="node"><title>ResetPasswordController</title>
<polyline fill="none" stroke="black" points="993.251,-754.853 1229.25,-754.853 "/>
<path fill="none" stroke="black" d="M1229.25,-754.853C1235.25,-754.853 1241.25,-760.853 1241.25,-766.853"/>
<polyline fill="none" stroke="black" points="1241.25,-766.853 1241.25,-926.853 "/>
<path fill="none" stroke="black" d="M1241.25,-926.853C1241.25,-932.853 1235.25,-938.853 1229.25,-938.853"/>
<polyline fill="none" stroke="black" points="1229.25,-938.853 993.251,-938.853 "/>
<path fill="none" stroke="black" d="M993.251,-938.853C987.251,-938.853 981.251,-932.853 981.251,-926.853"/>
<polyline fill="none" stroke="black" points="981.251,-926.853 981.251,-766.853 "/>
<path fill="none" stroke="black" d="M981.251,-766.853C981.251,-760.853 987.251,-754.853 993.251,-754.853"/>
<text text-anchor="middle" x="1111.25" y="-922.253" font-family="Times Roman,serif" font-size="14.00">ResetPasswordController</text>
<polyline fill="none" stroke="black" points="981.251,-913.853 1241.25,-913.853 "/>
<text text-anchor="start" x="989.251" y="-897.253" font-family="Times Roman,serif" font-size="14.00">_one_time_conditions_valid_104?</text>
<text text-anchor="start" x="989.251" y="-880.253" font-family="Times Roman,serif" font-size="14.00">create</text>
<text text-anchor="start" x="989.251" y="-863.253" font-family="Times Roman,serif" font-size="14.00">edit</text>
<text text-anchor="start" x="989.251" y="-846.253" font-family="Times Roman,serif" font-size="14.00">new</text>
<text text-anchor="start" x="989.251" y="-829.253" font-family="Times Roman,serif" font-size="14.00">update</text>
<polyline fill="none" stroke="black" points="981.251,-820.853 1241.25,-820.853 "/>
<polyline fill="none" stroke="black" points="981.251,-796.853 1241.25,-796.853 "/>
<text text-anchor="start" x="989.251" y="-780.253" font-family="Times Roman,serif" font-size="14.00">_layout</text>
<text text-anchor="start" x="989.251" y="-763.253" font-family="Times Roman,serif" font-size="14.00">require_valid_token</text>
</g>
<!-- ApplicationController&#45;&gt;ResetPasswordController -->
<g id="edge14" class="edge"><title>ApplicationController&#45;&gt;ResetPasswordController</title>
<path fill="none" stroke="black" d="M765.603,-740.792C832.144,-761.21 913.764,-786.255 980.978,-806.879"/>
</g>
<!-- SessionsController -->
<g id="node10" class="node"><title>SessionsController</title>
<polyline fill="none" stroke="black" points="97.896,-432.484 286.896,-432.484 "/>
<path fill="none" stroke="black" d="M286.896,-432.484C292.896,-432.484 298.896,-438.484 298.896,-444.484"/>
<polyline fill="none" stroke="black" points="298.896,-444.484 298.896,-570.484 "/>
<path fill="none" stroke="black" d="M298.896,-570.484C298.896,-576.484 292.896,-582.484 286.896,-582.484"/>
<polyline fill="none" stroke="black" points="286.896,-582.484 97.896,-582.484 "/>
<path fill="none" stroke="black" d="M97.896,-582.484C91.896,-582.484 85.896,-576.484 85.896,-570.484"/>
<polyline fill="none" stroke="black" points="85.896,-570.484 85.896,-444.484 "/>
<path fill="none" stroke="black" d="M85.896,-444.484C85.896,-438.484 91.896,-432.484 97.896,-432.484"/>
<text text-anchor="middle" x="192.396" y="-565.884" font-family="Times Roman,serif" font-size="14.00">SessionsController</text>
<polyline fill="none" stroke="black" points="85.896,-557.484 298.896,-557.484 "/>
<text text-anchor="start" x="93.896" y="-540.884" font-family="Times Roman,serif" font-size="14.00">create</text>
<text text-anchor="start" x="93.896" y="-523.884" font-family="Times Roman,serif" font-size="14.00">destroy</text>
<text text-anchor="start" x="93.896" y="-506.884" font-family="Times Roman,serif" font-size="14.00">new</text>
<polyline fill="none" stroke="black" points="85.896,-498.484 298.896,-498.484 "/>
<polyline fill="none" stroke="black" points="85.896,-474.484 298.896,-474.484 "/>
<text text-anchor="start" x="93.896" y="-457.884" font-family="Times Roman,serif" font-size="14.00">_layout</text>
<text text-anchor="start" x="93.896" y="-440.884" font-family="Times Roman,serif" font-size="14.00">log_failed_sign_in_attempt</text>
</g>
<!-- ApplicationController&#45;&gt;SessionsController -->
<g id="edge16" class="edge"><title>ApplicationController&#45;&gt;SessionsController</title>
<path fill="none" stroke="black" d="M514.361,-647.59C446.491,-618.056 363.584,-581.978 298.898,-553.829"/>
</g>
<!-- ShareLinksController -->
<g id="node11" class="node"><title>ShareLinksController</title>
<polyline fill="none" stroke="black" points="932.354,-354.37 1240.35,-354.37 "/>
<path fill="none" stroke="black" d="M1240.35,-354.37C1246.35,-354.37 1252.35,-360.37 1252.35,-366.37"/>
<polyline fill="none" stroke="black" points="1252.35,-366.37 1252.35,-645.37 "/>
<path fill="none" stroke="black" d="M1252.35,-645.37C1252.35,-651.37 1246.35,-657.37 1240.35,-657.37"/>
<polyline fill="none" stroke="black" points="1240.35,-657.37 932.354,-657.37 "/>
<path fill="none" stroke="black" d="M932.354,-657.37C926.354,-657.37 920.354,-651.37 920.354,-645.37"/>
<polyline fill="none" stroke="black" points="920.354,-645.37 920.354,-366.37 "/>
<path fill="none" stroke="black" d="M920.354,-366.37C920.354,-360.37 926.354,-354.37 932.354,-354.37"/>
<text text-anchor="middle" x="1086.35" y="-640.77" font-family="Times Roman,serif" font-size="14.00">ShareLinksController</text>
<polyline fill="none" stroke="black" points="920.354,-632.37 1252.35,-632.37 "/>
<text text-anchor="start" x="928.354" y="-615.77" font-family="Times Roman,serif" font-size="14.00">_one_time_conditions_valid_108?</text>
<text text-anchor="start" x="928.354" y="-598.77" font-family="Times Roman,serif" font-size="14.00">_one_time_conditions_valid_112?</text>
<text text-anchor="start" x="928.354" y="-581.77" font-family="Times Roman,serif" font-size="14.00">_one_time_conditions_valid_116?</text>
<text text-anchor="start" x="928.354" y="-564.77" font-family="Times Roman,serif" font-size="14.00">_one_time_conditions_valid_120?</text>
<text text-anchor="start" x="928.354" y="-547.77" font-family="Times Roman,serif" font-size="14.00">_one_time_conditions_valid_123?</text>
<text text-anchor="start" x="928.354" y="-530.77" font-family="Times Roman,serif" font-size="14.00">create</text>
<text text-anchor="start" x="928.354" y="-513.77" font-family="Times Roman,serif" font-size="14.00">destroy</text>
<text text-anchor="start" x="928.354" y="-496.77" font-family="Times Roman,serif" font-size="14.00">index</text>
<text text-anchor="start" x="928.354" y="-479.77" font-family="Times Roman,serif" font-size="14.00">new</text>
<text text-anchor="start" x="928.354" y="-462.77" font-family="Times Roman,serif" font-size="14.00">show</text>
<polyline fill="none" stroke="black" points="920.354,-454.37 1252.35,-454.37 "/>
<polyline fill="none" stroke="black" points="920.354,-430.37 1252.35,-430.37 "/>
<text text-anchor="start" x="928.354" y="-413.77" font-family="Times Roman,serif" font-size="14.00">_layout</text>
<text text-anchor="start" x="928.354" y="-396.77" font-family="Times Roman,serif" font-size="14.00">redirect_to_root_or_signin_and_show_alert</text>
<text text-anchor="start" x="928.354" y="-379.77" font-family="Times Roman,serif" font-size="14.00">require_existing_file</text>
<text text-anchor="start" x="928.354" y="-362.77" font-family="Times Roman,serif" font-size="14.00">require_existing_share_link</text>
</g>
<!-- ApplicationController&#45;&gt;ShareLinksController -->
<g id="edge18" class="edge"><title>ApplicationController&#45;&gt;ShareLinksController</title>
<path fill="none" stroke="black" d="M765.459,-647.006C813.429,-625.908 868.895,-601.513 920.081,-579.001"/>
</g>
<!-- SignupController -->
<g id="node12" class="node"><title>SignupController</title>
<polyline fill="none" stroke="black" points="983.768,-31.0661 1219.77,-31.0661 "/>
<path fill="none" stroke="black" d="M1219.77,-31.0661C1225.77,-31.0661 1231.77,-37.0661 1231.77,-43.0661"/>
<polyline fill="none" stroke="black" points="1231.77,-43.0661 1231.77,-169.066 "/>
<path fill="none" stroke="black" d="M1231.77,-169.066C1231.77,-175.066 1225.77,-181.066 1219.77,-181.066"/>
<polyline fill="none" stroke="black" points="1219.77,-181.066 983.768,-181.066 "/>
<path fill="none" stroke="black" d="M983.768,-181.066C977.768,-181.066 971.768,-175.066 971.768,-169.066"/>
<polyline fill="none" stroke="black" points="971.768,-169.066 971.768,-43.0661 "/>
<path fill="none" stroke="black" d="M971.768,-43.0661C971.768,-37.0661 977.768,-31.0661 983.768,-31.0661"/>
<text text-anchor="middle" x="1101.77" y="-164.466" font-family="Times Roman,serif" font-size="14.00">SignupController</text>
<polyline fill="none" stroke="black" points="971.768,-156.066 1231.77,-156.066 "/>
<text text-anchor="start" x="979.768" y="-139.466" font-family="Times Roman,serif" font-size="14.00">_one_time_conditions_valid_128?</text>
<text text-anchor="start" x="979.768" y="-122.466" font-family="Times Roman,serif" font-size="14.00">edit</text>
<text text-anchor="start" x="979.768" y="-105.466" font-family="Times Roman,serif" font-size="14.00">update</text>
<polyline fill="none" stroke="black" points="971.768,-97.0661 1231.77,-97.0661 "/>
<polyline fill="none" stroke="black" points="971.768,-73.0661 1231.77,-73.0661 "/>
<text text-anchor="start" x="979.768" y="-56.4661" font-family="Times Roman,serif" font-size="14.00">_layout</text>
<text text-anchor="start" x="979.768" y="-39.4661" font-family="Times Roman,serif" font-size="14.00">require_valid_token</text>
</g>
<!-- ApplicationController&#45;&gt;SignupController -->
<g id="edge20" class="edge"><title>ApplicationController&#45;&gt;SignupController</title>
<path fill="none" stroke="black" d="M764.288,-541.681C854.995,-424.598 973.793,-271.255 1043.55,-181.218"/>
</g>
<!-- UsersController -->
<g id="node13" class="node"><title>UsersController</title>
<polyline fill="none" stroke="black" points="13,-1121.92 252,-1121.92 "/>
<path fill="none" stroke="black" d="M252,-1121.92C258,-1121.92 264,-1127.92 264,-1133.92"/>
<polyline fill="none" stroke="black" points="264,-1133.92 264,-1412.92 "/>
<path fill="none" stroke="black" d="M264,-1412.92C264,-1418.92 258,-1424.92 252,-1424.92"/>
<polyline fill="none" stroke="black" points="252,-1424.92 13,-1424.92 "/>
<path fill="none" stroke="black" d="M13,-1424.92C7,-1424.92 1,-1418.92 1,-1412.92"/>
<polyline fill="none" stroke="black" points="1,-1412.92 1,-1133.92 "/>
<path fill="none" stroke="black" d="M1,-1133.92C1,-1127.92 7,-1121.92 13,-1121.92"/>
<text text-anchor="middle" x="132.5" y="-1408.32" font-family="Times Roman,serif" font-size="14.00">UsersController</text>
<polyline fill="none" stroke="black" points="1,-1399.92 264,-1399.92 "/>
<text text-anchor="start" x="9" y="-1383.32" font-family="Times Roman,serif" font-size="14.00">_one_time_conditions_valid_132?</text>
<text text-anchor="start" x="9" y="-1366.32" font-family="Times Roman,serif" font-size="14.00">_one_time_conditions_valid_136?</text>
<text text-anchor="start" x="9" y="-1349.32" font-family="Times Roman,serif" font-size="14.00">_one_time_conditions_valid_140?</text>
<text text-anchor="start" x="9" y="-1332.32" font-family="Times Roman,serif" font-size="14.00">create</text>
<text text-anchor="start" x="9" y="-1315.32" font-family="Times Roman,serif" font-size="14.00">destroy</text>
<text text-anchor="start" x="9" y="-1298.32" font-family="Times Roman,serif" font-size="14.00">edit</text>
<text text-anchor="start" x="9" y="-1281.32" font-family="Times Roman,serif" font-size="14.00">extend</text>
<text text-anchor="start" x="9" y="-1264.32" font-family="Times Roman,serif" font-size="14.00">index</text>
<text text-anchor="start" x="9" y="-1247.32" font-family="Times Roman,serif" font-size="14.00">new</text>
<text text-anchor="start" x="9" y="-1230.32" font-family="Times Roman,serif" font-size="14.00">update</text>
<polyline fill="none" stroke="black" points="1,-1221.92 264,-1221.92 "/>
<polyline fill="none" stroke="black" points="1,-1197.92 264,-1197.92 "/>
<text text-anchor="start" x="9" y="-1181.32" font-family="Times Roman,serif" font-size="14.00">_layout</text>
<text text-anchor="start" x="9" y="-1164.32" font-family="Times Roman,serif" font-size="14.00">require_deleted_user_isnt_admin</text>
<text text-anchor="start" x="9" y="-1147.32" font-family="Times Roman,serif" font-size="14.00">require_existing_user</text>
<text text-anchor="start" x="9" y="-1130.32" font-family="Times Roman,serif" font-size="14.00">set_groups</text>
</g>
<!-- ApplicationController&#45;&gt;UsersController -->
<g id="edge22" class="edge"><title>ApplicationController&#45;&gt;UsersController</title>
<path fill="none" stroke="black" d="M514.158,-843.785C438.07,-929.437 341.184,-1038.5 264.069,-1125.31"/>
</g>
</g>
</svg>
