<?xml version="1.0" encoding="UTF-8" standalone="no"?>
<!DOCTYPE svg PUBLIC "-//W3C//DTD SVG 1.1//EN"
 "http://www.w3.org/Graphics/SVG/1.1/DTD/svg11.dtd">
<!-- Generated by graphviz version 2.26.3 (20100126.1600)
 -->
<!-- Title: controllers_diagram Pages: 1 -->
<svg width="1108pt" height="546pt"
 viewBox="0.00 0.00 1108.33 546.00" xmlns="http://www.w3.org/2000/svg" xmlns:xlink="http://www.w3.org/1999/xlink">
<g id="graph1" class="graph" transform="scale(1 1) rotate(0) translate(4 542)">
<title>controllers_diagram</title>
<polygon fill="white" stroke="white" points="-4,5 -4,-542 1105.33,-542 1105.33,5 -4,5"/>
<!-- _diagram_info -->
<g id="node1" class="node"><title>_diagram_info</title>
<text text-anchor="start" x="793" y="-521.3" font-family="Times Roman,serif" font-size="13.00">Controllers diagram</text>
<text text-anchor="start" x="793" y="-505.3" font-family="Times Roman,serif" font-size="13.00">Date: Oct 09 2012 &#45; 15:50</text>
<text text-anchor="start" x="793" y="-489.3" font-family="Times Roman,serif" font-size="13.00">Migration version: 20120411081345</text>
<text text-anchor="start" x="793" y="-473.3" font-family="Times Roman,serif" font-size="13.00">Generated by RailRoady 1.1.0</text>
<text text-anchor="start" x="793" y="-457.3" font-family="Times Roman,serif" font-size="13.00">http://railroady.prestonlee.com</text>
</g>
<!-- AdminsController -->
<g id="node2" class="node"><title>AdminsController</title>
<ellipse fill="none" stroke="black" cx="107.412" cy="-362.952" rx="100.758" ry="18"/>
<text text-anchor="middle" x="107.412" y="-358.852" font-family="Times Roman,serif" font-size="14.00">AdminsController</text>
</g>
<!-- ApplicationController -->
<g id="node3" class="node"><title>ApplicationController</title>
<ellipse fill="none" stroke="black" cx="522.036" cy="-212.28" rx="120.215" ry="18"/>
<text text-anchor="middle" x="522.036" y="-208.18" font-family="Times Roman,serif" font-size="14.00">ApplicationController</text>
</g>
<!-- ApplicationController&#45;&gt;AdminsController -->
<g id="edge2" class="edge"><title>ApplicationController&#45;&gt;AdminsController</title>
<path fill="none" stroke="black" d="M494.272,-229.882C468.438,-246.048 428.703,-270.378 393.24,-289.856 381.184,-296.478 378.49,-299.024 365.541,-303.664 305.157,-325.303 233.934,-340.964 181.614,-350.736"/>
</g>
<!-- ClipboardController -->
<g id="node4" class="node"><title>ClipboardController</title>
<ellipse fill="none" stroke="black" cx="529.405" cy="-19" rx="111.876" ry="18"/>
<text text-anchor="middle" x="529.405" y="-14.9" font-family="Times Roman,serif" font-size="14.00">ClipboardController</text>
</g>
<!-- ApplicationController&#45;&gt;ClipboardController -->
<g id="edge4" class="edge"><title>ApplicationController&#45;&gt;ClipboardController</title>
<path fill="none" stroke="black" d="M522.729,-194.097C524.134,-157.259 527.301,-74.1907 528.708,-37.2758"/>
</g>
<!-- FilesController -->
<g id="node5" class="node"><title>FilesController</title>
<ellipse fill="none" stroke="black" cx="419.153" cy="-414.796" rx="86.1654" ry="18"/>
<text text-anchor="middle" x="419.153" y="-410.696" font-family="Times Roman,serif" font-size="14.00">FilesController</text>
</g>
<!-- ApplicationController&#45;&gt;FilesController -->
<g id="edge6" class="edge"><title>ApplicationController&#45;&gt;FilesController</title>
<path fill="none" stroke="black" d="M512.906,-230.252C493.382,-268.683 447.768,-358.47 428.263,-396.865"/>
</g>
<!-- FoldersController -->
<g id="node6" class="node"><title>FoldersController</title>
<ellipse fill="none" stroke="black" cx="761.563" cy="-321.907" rx="100.063" ry="18"/>
<text text-anchor="middle" x="761.563" y="-317.807" font-family="Times Roman,serif" font-size="14.00">FoldersController</text>
</g>
<!-- ApplicationController&#45;&gt;FoldersController -->
<g id="edge8" class="edge"><title>ApplicationController&#45;&gt;FoldersController</title>
<path fill="none" stroke="black" d="M559.462,-229.409C604.593,-250.065 679.957,-284.558 724.792,-305.078"/>
</g>
<!-- GroupsController -->
<g id="node7" class="node"><title>GroupsController</title>
<ellipse fill="none" stroke="black" cx="614.044" cy="-401.503" rx="100.063" ry="18"/>
<text text-anchor="middle" x="614.044" y="-397.403" font-family="Times Roman,serif" font-size="14.00">GroupsController</text>
</g>
<!-- ApplicationController&#45;&gt;GroupsController -->
<g id="edge10" class="edge"><title>ApplicationController&#45;&gt;GroupsController</title>
<path fill="none" stroke="black" d="M530.858,-230.424C548.445,-266.592 587.684,-347.291 605.248,-383.414"/>
</g>
<!-- PermissionsController -->
<g id="node8" class="node"><title>PermissionsController</title>
<ellipse fill="none" stroke="black" cx="331.641" cy="-54.885" rx="123.188" ry="18"/>
<text text-anchor="middle" x="331.641" y="-50.785" font-family="Times Roman,serif" font-size="14.00">PermissionsController</text>
</g>
<!-- ApplicationController&#45;&gt;PermissionsController -->
<g id="edge12" class="edge"><title>ApplicationController&#45;&gt;PermissionsController</title>
<path fill="none" stroke="black" d="M500.566,-194.531C463.999,-164.302 390.038,-103.16 353.326,-72.8109"/>
</g>
<!-- ResetPasswordController -->
<g id="node9" class="node"><title>ResetPasswordController</title>
<ellipse fill="none" stroke="black" cx="960.33" cy="-355.883" rx="138.976" ry="18"/>
<text text-anchor="middle" x="960.33" y="-351.783" font-family="Times Roman,serif" font-size="14.00">ResetPasswordController</text>
</g>
<!-- ApplicationController&#45;&gt;ResetPasswordController -->
<g id="edge14" class="edge"><title>ApplicationController&#45;&gt;ResetPasswordController</title>
<path fill="none" stroke="black" d="M577.825,-228.29C640.447,-246.526 744.911,-277.741 833.686,-308.102 861.591,-317.646 892.572,-329.316 916.907,-338.733"/>
</g>
<!-- SessionsController -->
<g id="node10" class="node"><title>SessionsController</title>
<ellipse fill="none" stroke="black" cx="108" cy="-75.7092" rx="107.012" ry="18"/>
<text text-anchor="middle" x="108" y="-71.6092" font-family="Times Roman,serif" font-size="14.00">SessionsController</text>
</g>
<!-- ApplicationController&#45;&gt;SessionsController -->
<g id="edge16" class="edge"><title>ApplicationController&#45;&gt;SessionsController</title>
<path fill="none" stroke="black" d="M472.094,-195.807C392.084,-169.415 236.136,-117.975 156.834,-91.8172"/>
</g>
<!-- ShareLinksController -->
<g id="node11" class="node"><title>ShareLinksController</title>
<ellipse fill="none" stroke="black" cx="947.938" cy="-72.3117" rx="118.825" ry="18"/>
<text text-anchor="middle" x="947.938" y="-68.2117" font-family="Times Roman,serif" font-size="14.00">ShareLinksController</text>
</g>
<!-- ApplicationController&#45;&gt;ShareLinksController -->
<g id="edge18" class="edge"><title>ApplicationController&#45;&gt;ShareLinksController</title>
<path fill="none" stroke="black" d="M572.145,-195.812C654.164,-168.858 816.125,-115.631 898.02,-88.7168"/>
</g>
<!-- SignupController -->
<g id="node12" class="node"><title>SignupController</title>
<ellipse fill="none" stroke="black" cx="720.932" cy="-68.1134" rx="97.9784" ry="18"/>
<text text-anchor="middle" x="720.932" y="-64.0134" font-family="Times Roman,serif" font-size="14.00">SignupController</text>
</g>
<!-- ApplicationController&#45;&gt;SignupController -->
<g id="edge20" class="edge"><title>ApplicationController&#45;&gt;SignupController</title>
<path fill="none" stroke="black" d="M546.425,-194.603C584.702,-166.858 658.448,-113.404 696.656,-85.7099"/>
</g>
<!-- UsersController -->
<g id="node13" class="node"><title>UsersController</title>
<ellipse fill="none" stroke="black" cx="300.644" cy="-289.683" rx="91.2232" ry="18"/>
<text text-anchor="middle" x="300.644" y="-285.583" font-family="Times Roman,serif" font-size="14.00">UsersController</text>
</g>
<!-- ApplicationController&#45;&gt;UsersController -->
<g id="edge22" class="edge"><title>ApplicationController&#45;&gt;UsersController</title>
<path fill="none" stroke="black" d="M474.542,-228.885C436.425,-242.211 383.274,-260.794 345.792,-273.898"/>
</g>
</g>
</svg>
