<?xml version="1.0" encoding="UTF-8" standalone="no"?>
<!DOCTYPE svg PUBLIC "-//W3C//DTD SVG 1.1//EN"
 "http://www.w3.org/Graphics/SVG/1.1/DTD/svg11.dtd">
<!-- Generated by graphviz version 2.26.3 (20100126.1600)
 -->
<!-- Title: models_diagram Pages: 1 -->
<svg width="675pt" height="244pt"
 viewBox="0.00 0.00 675.00 244.00" xmlns="http://www.w3.org/2000/svg" xmlns:xlink="http://www.w3.org/1999/xlink">
<g id="graph1" class="graph" transform="scale(1 1) rotate(0) translate(4 240)">
<title>models_diagram</title>
<polygon fill="white" stroke="white" points="-4,5 -4,-240 672,-240 672,5 -4,5"/>
<!-- _diagram_info -->
<g id="node1" class="node"><title>_diagram_info</title>
<text text-anchor="start" x="7.5" y="-220.3" font-family="Times Roman,serif" font-size="13.00">Models diagram</text>
<text text-anchor="start" x="7.5" y="-204.3" font-family="Times Roman,serif" font-size="13.00">Date: Oct 09 2012 &#45; 15:50</text>
<text text-anchor="start" x="7.5" y="-188.3" font-family="Times Roman,serif" font-size="13.00">Migration version: 20120411081345</text>
<text text-anchor="start" x="7.5" y="-172.3" font-family="Times Roman,serif" font-size="13.00">Generated by RailRoady 1.1.0</text>
<text text-anchor="start" x="7.5" y="-156.3" font-family="Times Roman,serif" font-size="13.00">http://railroady.prestonlee.com</text>
</g>
<!-- Clipboard -->
<g id="node2" class="node"><title>Clipboard</title>
<polygon fill="none" stroke="black" points="360,-210 274,-210 274,-174 360,-174 360,-210"/>
<text text-anchor="middle" x="317" y="-187.9" font-family="Times Roman,serif" font-size="14.00">Clipboard</text>
</g>
<!-- Folder -->
<g id="node3" class="node"><title>Folder</title>
<ellipse fill="none" stroke="black" cx="421" cy="-192" rx="43.0827" ry="18"/>
<text text-anchor="middle" x="421" y="-187.9" font-family="Times Roman,serif" font-size="14.00">Folder</text>
</g>
<!-- Folder&#45;&gt;Folder -->
<g id="edge2" class="edge"><title>Folder&#45;&gt;Folder</title>
<path fill="none" stroke="#c1701f" d="M462.34,-203.539C473.506,-202.93 482,-199.084 482,-192 482,-185.393 474.611,-181.602 464.557,-180.628"/>
<ellipse fill="none" stroke="#c1701f" cx="458.255" cy="-203.491" rx="4" ry="4"/>
<polygon fill="#c1701f" stroke="#c1701f" points="464.255,-180.626 454.286,-176.057 459.255,-180.591 454.255,-180.557 454.255,-180.557 454.255,-180.557 459.255,-180.591 454.224,-185.057 464.255,-180.626 464.255,-180.626"/>
<text text-anchor="middle" x="512" y="-187.9" font-family="Times Roman,serif" font-size="14.00">children</text>
</g>
<!-- Permission -->
<g id="node5" class="node"><title>Permission</title>
<ellipse fill="none" stroke="black" cx="515" cy="-92" rx="66.2071" ry="18"/>
<text text-anchor="middle" x="515" y="-87.9" font-family="Times Roman,serif" font-size="14.00">Permission</text>
</g>
<!-- Folder&#45;&gt;Permission -->
<g id="edge6" class="edge"><title>Folder&#45;&gt;Permission</title>
<path fill="none" stroke="#8df8c2" d="M442.434,-169.197C457.016,-153.685 476.316,-133.154 491.346,-117.164"/>
<ellipse fill="none" stroke="#8df8c2" cx="439.685" cy="-172.122" rx="4.00002" ry="4.00002"/>
<polygon fill="#8df8c2" stroke="#8df8c2" points="491.493,-117.008 501.621,-112.804 494.917,-113.365 498.342,-109.721 498.342,-109.721 498.342,-109.721 494.917,-113.365 495.063,-106.639 491.493,-117.008 491.493,-117.008"/>
</g>
<!-- UserFile -->
<g id="node8" class="node"><title>UserFile</title>
<ellipse fill="none" stroke="black" cx="378" cy="-92" rx="52.8111" ry="18"/>
<text text-anchor="middle" x="378" y="-87.9" font-family="Times Roman,serif" font-size="14.00">UserFile</text>
</g>
<!-- Folder&#45;&gt;UserFile -->
<g id="edge4" class="edge"><title>Folder&#45;&gt;UserFile</title>
<path fill="none" stroke="#9bda39" d="M410.011,-166.445C403.851,-152.12 396.165,-134.244 389.868,-119.599"/>
<ellipse fill="none" stroke="#9bda39" cx="411.732" cy="-170.447" rx="4.00002" ry="4.00002"/>
<polygon fill="#9bda39" stroke="#9bda39" points="389.716,-119.247 389.9,-108.283 387.741,-114.654 385.766,-110.06 385.766,-110.06 385.766,-110.06 387.741,-114.654 381.632,-111.838 389.716,-119.247 389.716,-119.247"/>
</g>
<!-- Group -->
<g id="node4" class="node"><title>Group</title>
<ellipse fill="none" stroke="black" cx="621" cy="-192" rx="43.0827" ry="18"/>
<text text-anchor="middle" x="621" y="-187.9" font-family="Times Roman,serif" font-size="14.00">Group</text>
</g>
<!-- Group&#45;&gt;Permission -->
<g id="edge8" class="edge"><title>Group&#45;&gt;Permission</title>
<path fill="none" stroke="#db34c9" d="M597.535,-169.863C580.839,-154.112 558.398,-132.941 541.131,-116.652"/>
<ellipse fill="none" stroke="#db34c9" cx="600.587" cy="-172.742" rx="4.00002" ry="4.00002"/>
<polygon fill="#db34c9" stroke="#db34c9" points="540.874,-116.41 536.688,-106.274 537.237,-112.979 533.6,-109.547 533.6,-109.547 533.6,-109.547 537.237,-112.979 530.512,-112.821 540.874,-116.41 540.874,-116.41"/>
</g>
<!-- User -->
<g id="node7" class="node"><title>User</title>
<ellipse fill="none" stroke="black" cx="633" cy="-92" rx="34.2406" ry="18"/>
<text text-anchor="middle" x="633" y="-87.9" font-family="Times Roman,serif" font-size="14.00">User</text>
</g>
<!-- Group&#45;&gt;User -->
<g id="edge10" class="edge"><title>Group&#45;&gt;User</title>
<path fill="none" stroke="#33a088" d="M624.405,-163.622C626.029,-150.094 627.966,-133.952 629.59,-120.419"/>
<polygon fill="#33a088" stroke="#33a088" points="624.393,-163.73 618.733,-173.122 623.797,-168.694 623.201,-173.658 623.201,-173.658 623.201,-173.658 623.797,-168.694 627.669,-174.195 624.393,-163.73 624.393,-163.73"/>
<polygon fill="#33a088" stroke="#33a088" points="629.621,-120.154 635.281,-110.761 630.217,-115.19 630.813,-110.225 630.813,-110.225 630.813,-110.225 630.217,-115.19 626.345,-109.689 629.621,-120.154 629.621,-120.154"/>
</g>
<!-- ShareLink -->
<g id="node6" class="node"><title>ShareLink</title>
<ellipse fill="none" stroke="black" cx="378" cy="-18" rx="61.8445" ry="18"/>
<text text-anchor="middle" x="378" y="-13.9" font-family="Times Roman,serif" font-size="14.00">ShareLink</text>
</g>
<!-- UserFile&#45;&gt;ShareLink -->
<g id="edge12" class="edge"><title>UserFile&#45;&gt;ShareLink</title>
<path fill="none" stroke="#8c5508" d="M378,-65.4865C378,-59.2389 378,-52.5565 378,-46.2361"/>
<ellipse fill="none" stroke="#8c5508" cx="378" cy="-69.7079" rx="4" ry="4"/>
<polygon fill="#8c5508" stroke="#8c5508" points="378,-46.0817 382.5,-36.0817 378,-41.0817 378,-36.0817 378,-36.0817 378,-36.0817 378,-41.0817 373.5,-36.0818 378,-46.0817 378,-46.0817"/>
</g>
</g>
</svg>
