<?xml version="1.0" encoding="UTF-8" standalone="no"?>
<!DOCTYPE svg PUBLIC "-//W3C//DTD SVG 1.1//EN"
 "http://www.w3.org/Graphics/SVG/1.1/DTD/svg11.dtd">
<!-- Generated by graphviz version 2.26.3 (20100126.1600)
 -->
<!-- Title: models_diagram Pages: 1 -->
<svg width="1010pt" height="614pt"
 viewBox="0.00 0.00 1010.00 614.00" xmlns="http://www.w3.org/2000/svg" xmlns:xlink="http://www.w3.org/1999/xlink">
<g id="graph1" class="graph" transform="scale(1 1) rotate(0) translate(4 610)">
<title>models_diagram</title>
<polygon fill="white" stroke="white" points="-4,5 -4,-610 1007,-610 1007,5 -4,5"/>
<!-- _diagram_info -->
<g id="node1" class="node"><title>_diagram_info</title>
<text text-anchor="start" x="7.5" y="-574.3" font-family="Times Roman,serif" font-size="13.00">Models diagram</text>
<text text-anchor="start" x="7.5" y="-558.3" font-family="Times Roman,serif" font-size="13.00">Date: Oct 09 2012 &#45; 15:50</text>
<text text-anchor="start" x="7.5" y="-542.3" font-family="Times Roman,serif" font-size="13.00">Migration version: 20120411081345</text>
<text text-anchor="start" x="7.5" y="-526.3" font-family="Times Roman,serif" font-size="13.00">Generated by RailRoady 1.1.0</text>
<text text-anchor="start" x="7.5" y="-510.3" font-family="Times Roman,serif" font-size="13.00">http://railroady.prestonlee.com</text>
</g>
<!-- Clipboard -->
<g id="node2" class="node"><title>Clipboard</title>
<polygon fill="none" stroke="black" points="273.5,-521 273.5,-571 360.5,-571 360.5,-521 273.5,-521"/>
<text text-anchor="middle" x="317" y="-554.4" font-family="Times Roman,serif" font-size="14.00">Clipboard</text>
<polyline fill="none" stroke="black" points="273.5,-546 360.5,-546 "/>
<text text-anchor="middle" x="317" y="-529.4" font-family="Times Roman,serif" font-size="14.00"> </text>
</g>
<!-- Folder -->
<g id="node3" class="node"><title>Folder</title>
<polyline fill="none" stroke="black" points="390,-487 542,-487 "/>
<path fill="none" stroke="black" d="M542,-487C548,-487 554,-493 554,-499"/>
<polyline fill="none" stroke="black" points="554,-499 554,-593 "/>
<path fill="none" stroke="black" d="M554,-593C554,-599 548,-605 542,-605"/>
<polyline fill="none" stroke="black" points="542,-605 390,-605 "/>
<path fill="none" stroke="black" d="M390,-605C384,-605 378,-599 378,-593"/>
<polyline fill="none" stroke="black" points="378,-593 378,-499 "/>
<path fill="none" stroke="black" d="M378,-499C378,-493 384,-487 390,-487"/>
<text text-anchor="middle" x="466" y="-588.4" font-family="Times Roman,serif" font-size="14.00">Folder</text>
<polyline fill="none" stroke="black" points="378,-580 554,-580 "/>
<text text-anchor="start" x="386" y="-563.4" font-family="Times Roman,serif" font-size="14.00">id :integer</text>
<text text-anchor="start" x="386" y="-546.4" font-family="Times Roman,serif" font-size="14.00">name :string</text>
<text text-anchor="start" x="386" y="-529.4" font-family="Times Roman,serif" font-size="14.00">parent_id :integer</text>
<text text-anchor="start" x="386" y="-512.4" font-family="Times Roman,serif" font-size="14.00">created_at :datetime</text>
<text text-anchor="start" x="386" y="-495.4" font-family="Times Roman,serif" font-size="14.00">updated_at :datetime</text>
</g>
<!-- Folder&#45;&gt;Folder -->
<g id="edge2" class="edge"><title>Folder&#45;&gt;Folder</title>
<path fill="none" stroke="#8041fa" d="M561.884,-556.435C568.185,-554.009 572,-550.531 572,-546 572,-541.951 568.953,-538.743 563.809,-536.375"/>
<ellipse fill="none" stroke="#8041fa" cx="557.979" cy="-557.552" rx="4.00001" ry="4.00001"/>
<polygon fill="#8041fa" stroke="#8041fa" points="563.677,-536.334 555.478,-529.052 558.905,-534.84 554.134,-533.347 554.134,-533.347 554.134,-533.347 558.905,-534.84 552.789,-537.641 563.677,-536.334 563.677,-536.334"/>
<text text-anchor="middle" x="602" y="-541.9" font-family="Times Roman,serif" font-size="14.00">children</text>
</g>
<!-- Permission -->
<g id="node5" class="node"><title>Permission</title>
<polyline fill="none" stroke="black" points="487.5,-244 632.5,-244 "/>
<path fill="none" stroke="black" d="M632.5,-244C638.5,-244 644.5,-250 644.5,-256"/>
<polyline fill="none" stroke="black" points="644.5,-256 644.5,-384 "/>
<path fill="none" stroke="black" d="M644.5,-384C644.5,-390 638.5,-396 632.5,-396"/>
<polyline fill="none" stroke="black" points="632.5,-396 487.5,-396 "/>
<path fill="none" stroke="black" d="M487.5,-396C481.5,-396 475.5,-390 475.5,-384"/>
<polyline fill="none" stroke="black" points="475.5,-384 475.5,-256 "/>
<path fill="none" stroke="black" d="M475.5,-256C475.5,-250 481.5,-244 487.5,-244"/>
<text text-anchor="middle" x="560" y="-379.4" font-family="Times Roman,serif" font-size="14.00">Permission</text>
<polyline fill="none" stroke="black" points="475.5,-371 644.5,-371 "/>
<text text-anchor="start" x="483.5" y="-354.4" font-family="Times Roman,serif" font-size="14.00">id :integer</text>
<text text-anchor="start" x="483.5" y="-337.4" font-family="Times Roman,serif" font-size="14.00">folder_id :integer</text>
<text text-anchor="start" x="483.5" y="-320.4" font-family="Times Roman,serif" font-size="14.00">group_id :integer</text>
<text text-anchor="start" x="483.5" y="-303.4" font-family="Times Roman,serif" font-size="14.00">can_create :boolean</text>
<text text-anchor="start" x="483.5" y="-286.4" font-family="Times Roman,serif" font-size="14.00">can_read :boolean</text>
<text text-anchor="start" x="483.5" y="-269.4" font-family="Times Roman,serif" font-size="14.00">can_update :boolean</text>
<text text-anchor="start" x="483.5" y="-252.4" font-family="Times Roman,serif" font-size="14.00">can_delete :boolean</text>
</g>
<!-- Folder&#45;&gt;Permission -->
<g id="edge6" class="edge"><title>Folder&#45;&gt;Permission</title>
<path fill="none" stroke="#cf85ef" d="M493.737,-479.313C503.36,-456.178 514.285,-429.91 524.45,-405.472"/>
<ellipse fill="none" stroke="#cf85ef" cx="492.111" cy="-483.223" rx="4.00001" ry="4.00001"/>
<polygon fill="#cf85ef" stroke="#cf85ef" points="524.463,-405.439 532.459,-397.934 526.384,-400.822 528.304,-396.206 528.304,-396.206 528.304,-396.206 526.384,-400.822 524.149,-394.477 524.463,-405.439 524.463,-405.439"/>
</g>
<!-- UserFile -->
<g id="node8" class="node"><title>UserFile</title>
<polyline fill="none" stroke="black" points="202,-235.5 446,-235.5 "/>
<path fill="none" stroke="black" d="M446,-235.5C452,-235.5 458,-241.5 458,-247.5"/>
<polyline fill="none" stroke="black" points="458,-247.5 458,-392.5 "/>
<path fill="none" stroke="black" d="M458,-392.5C458,-398.5 452,-404.5 446,-404.5"/>
<polyline fill="none" stroke="black" points="446,-404.5 202,-404.5 "/>
<path fill="none" stroke="black" d="M202,-404.5C196,-404.5 190,-398.5 190,-392.5"/>
<polyline fill="none" stroke="black" points="190,-392.5 190,-247.5 "/>
<path fill="none" stroke="black" d="M190,-247.5C190,-241.5 196,-235.5 202,-235.5"/>
<text text-anchor="middle" x="324" y="-387.9" font-family="Times Roman,serif" font-size="14.00">UserFile</text>
<polyline fill="none" stroke="black" points="190,-379.5 458,-379.5 "/>
<text text-anchor="start" x="198" y="-362.9" font-family="Times Roman,serif" font-size="14.00">id :integer</text>
<text text-anchor="start" x="198" y="-345.9" font-family="Times Roman,serif" font-size="14.00">attachment_file_name :string</text>
<text text-anchor="start" x="198" y="-328.9" font-family="Times Roman,serif" font-size="14.00">attachment_content_type :string</text>
<text text-anchor="start" x="198" y="-311.9" font-family="Times Roman,serif" font-size="14.00">attachment_file_size :integer</text>
<text text-anchor="start" x="198" y="-294.9" font-family="Times Roman,serif" font-size="14.00">attachment_updated_at :datetime</text>
<text text-anchor="start" x="198" y="-277.9" font-family="Times Roman,serif" font-size="14.00">folder_id :integer</text>
<text text-anchor="start" x="198" y="-260.9" font-family="Times Roman,serif" font-size="14.00">created_at :datetime</text>
<text text-anchor="start" x="198" y="-243.9" font-family="Times Roman,serif" font-size="14.00">updated_at :datetime</text>
</g>
<!-- Folder&#45;&gt;UserFile -->
<g id="edge4" class="edge"><title>Folder&#45;&gt;UserFile</title>
<path fill="none" stroke="#42c5dc" d="M424.557,-480.041C411.429,-459.148 396.661,-435.644 382.567,-413.213"/>
<ellipse fill="none" stroke="#42c5dc" cx="426.749" cy="-483.529" rx="4.00002" ry="4.00002"/>
<polygon fill="#42c5dc" stroke="#42c5dc" points="382.524,-413.144 381.014,-402.282 379.864,-408.91 377.204,-404.676 377.204,-404.676 377.204,-404.676 379.864,-408.91 373.393,-407.071 382.524,-413.144 382.524,-413.144"/>
</g>
<!-- Group -->
<g id="node4" class="node"><title>Group</title>
<polyline fill="none" stroke="black" points="709,-495.5 861,-495.5 "/>
<path fill="none" stroke="black" d="M861,-495.5C867,-495.5 873,-501.5 873,-507.5"/>
<polyline fill="none" stroke="black" points="873,-507.5 873,-584.5 "/>
<path fill="none" stroke="black" d="M873,-584.5C873,-590.5 867,-596.5 861,-596.5"/>
<polyline fill="none" stroke="black" points="861,-596.5 709,-596.5 "/>
<path fill="none" stroke="black" d="M709,-596.5C703,-596.5 697,-590.5 697,-584.5"/>
<polyline fill="none" stroke="black" points="697,-584.5 697,-507.5 "/>
<path fill="none" stroke="black" d="M697,-507.5C697,-501.5 703,-495.5 709,-495.5"/>
<text text-anchor="middle" x="785" y="-579.9" font-family="Times Roman,serif" font-size="14.00">Group</text>
<polyline fill="none" stroke="black" points="697,-571.5 873,-571.5 "/>
<text text-anchor="start" x="705" y="-554.9" font-family="Times Roman,serif" font-size="14.00">id :integer</text>
<text text-anchor="start" x="705" y="-537.9" font-family="Times Roman,serif" font-size="14.00">name :string</text>
<text text-anchor="start" x="705" y="-520.9" font-family="Times Roman,serif" font-size="14.00">created_at :datetime</text>
<text text-anchor="start" x="705" y="-503.9" font-family="Times Roman,serif" font-size="14.00">updated_at :datetime</text>
</g>
<!-- Group&#45;&gt;Permission -->
<g id="edge8" class="edge"><title>Group&#45;&gt;Permission</title>
<path fill="none" stroke="#1184e0" d="M701.738,-490.209C684.816,-477.248 667.712,-462.864 653,-448 639.957,-434.822 627.327,-419.694 615.798,-404.562"/>
<ellipse fill="none" stroke="#1184e0" cx="705.27" cy="-492.88" rx="4.00002" ry="4.00002"/>
<polygon fill="#1184e0" stroke="#1184e0" points="615.505,-404.171 613.113,-393.469 612.508,-400.168 609.511,-396.166 609.511,-396.166 609.511,-396.166 612.508,-400.168 605.909,-398.864 615.505,-404.171 615.505,-404.171"/>
</g>
<!-- User -->
<g id="node7" class="node"><title>User</title>
<polyline fill="none" stroke="black" points="674,-193 990,-193 "/>
<path fill="none" stroke="black" d="M990,-193C996,-193 1002,-199 1002,-205"/>
<polyline fill="none" stroke="black" points="1002,-205 1002,-435 "/>
<path fill="none" stroke="black" d="M1002,-435C1002,-441 996,-447 990,-447"/>
<polyline fill="none" stroke="black" points="990,-447 674,-447 "/>
<path fill="none" stroke="black" d="M674,-447C668,-447 662,-441 662,-435"/>
<polyline fill="none" stroke="black" points="662,-435 662,-205 "/>
<path fill="none" stroke="black" d="M662,-205C662,-199 668,-193 674,-193"/>
<text text-anchor="middle" x="832" y="-430.4" font-family="Times Roman,serif" font-size="14.00">User</text>
<polyline fill="none" stroke="black" points="662,-422 1002,-422 "/>
<text text-anchor="start" x="670" y="-405.4" font-family="Times Roman,serif" font-size="14.00">id :integer</text>
<text text-anchor="start" x="670" y="-388.4" font-family="Times Roman,serif" font-size="14.00">name :string</text>
<text text-anchor="start" x="670" y="-371.4" font-family="Times Roman,serif" font-size="14.00">email :string</text>
<text text-anchor="start" x="670" y="-354.4" font-family="Times Roman,serif" font-size="14.00">hashed_password :string</text>
<text text-anchor="start" x="670" y="-337.4" font-family="Times Roman,serif" font-size="14.00">password_salt :string</text>
<text text-anchor="start" x="670" y="-320.4" font-family="Times Roman,serif" font-size="14.00">is_admin :string</text>
<text text-anchor="start" x="670" y="-303.4" font-family="Times Roman,serif" font-size="14.00">remember_token :string</text>
<text text-anchor="start" x="670" y="-286.4" font-family="Times Roman,serif" font-size="14.00">reset_password_token :string</text>
<text text-anchor="start" x="670" y="-269.4" font-family="Times Roman,serif" font-size="14.00">reset_password_token_expires_at :datetime</text>
<text text-anchor="start" x="670" y="-252.4" font-family="Times Roman,serif" font-size="14.00">created_at :datetime</text>
<text text-anchor="start" x="670" y="-235.4" font-family="Times Roman,serif" font-size="14.00">updated_at :datetime</text>
<text text-anchor="start" x="670" y="-218.4" font-family="Times Roman,serif" font-size="14.00">signup_token :string</text>
<text text-anchor="start" x="670" y="-201.4" font-family="Times Roman,serif" font-size="14.00">signup_token_expires_at :datetime</text>
</g>
<!-- Group&#45;&gt;User -->
<g id="edge10" class="edge"><title>Group&#45;&gt;User</title>
<path fill="none" stroke="#3b10cf" d="M797.594,-485.444C799.468,-476.432 801.461,-466.848 803.507,-457.01"/>
<polygon fill="#3b10cf" stroke="#3b10cf" points="797.584,-485.491 791.142,-494.365 796.566,-490.386 795.548,-495.281 795.548,-495.281 795.548,-495.281 796.566,-490.386 799.953,-496.197 797.584,-485.491 797.584,-485.491"/>
<polygon fill="#3b10cf" stroke="#3b10cf" points="803.532,-456.89 809.974,-448.015 804.55,-451.994 805.568,-447.099 805.568,-447.099 805.568,-447.099 804.55,-451.994 801.162,-446.183 803.532,-456.89 803.532,-456.89"/>
</g>
<!-- ShareLink -->
<g id="node6" class="node"><title>ShareLink</title>
<polyline fill="none" stroke="black" points="234.5,-1 413.5,-1 "/>
<path fill="none" stroke="black" d="M413.5,-1C419.5,-1 425.5,-7 425.5,-13"/>
<polyline fill="none" stroke="black" points="425.5,-13 425.5,-141 "/>
<path fill="none" stroke="black" d="M425.5,-141C425.5,-147 419.5,-153 413.5,-153"/>
<polyline fill="none" stroke="black" points="413.5,-153 234.5,-153 "/>
<path fill="none" stroke="black" d="M234.5,-153C228.5,-153 222.5,-147 222.5,-141"/>
<polyline fill="none" stroke="black" points="222.5,-141 222.5,-13 "/>
<path fill="none" stroke="black" d="M222.5,-13C222.5,-7 228.5,-1 234.5,-1"/>
<text text-anchor="middle" x="324" y="-136.4" font-family="Times Roman,serif" font-size="14.00">ShareLink</text>
<polyline fill="none" stroke="black" points="222.5,-128 425.5,-128 "/>
<text text-anchor="start" x="230.5" y="-111.4" font-family="Times Roman,serif" font-size="14.00">id :integer</text>
<text text-anchor="start" x="230.5" y="-94.4" font-family="Times Roman,serif" font-size="14.00">emails :string</text>
<text text-anchor="start" x="230.5" y="-77.4" font-family="Times Roman,serif" font-size="14.00">link_token :string</text>
<text text-anchor="start" x="230.5" y="-60.4" font-family="Times Roman,serif" font-size="14.00">link_expires_at :datetime</text>
<text text-anchor="start" x="230.5" y="-43.4" font-family="Times Roman,serif" font-size="14.00">user_file_id :integer</text>
<text text-anchor="start" x="230.5" y="-26.4" font-family="Times Roman,serif" font-size="14.00">created_at :datetime</text>
<text text-anchor="start" x="230.5" y="-9.4" font-family="Times Roman,serif" font-size="14.00">updated_at :datetime</text>
</g>
<!-- UserFile&#45;&gt;ShareLink -->
<g id="edge12" class="edge"><title>UserFile&#45;&gt;ShareLink</title>
<path fill="none" stroke="#2ad849" d="M324,-227.138C324,-206.151 324,-183.955 324,-163.254"/>
<ellipse fill="none" stroke="#2ad849" cx="324" cy="-231.352" rx="4" ry="4"/>
<polygon fill="#2ad849" stroke="#2ad849" points="324,-163.223 328.5,-153.223 324,-158.223 324,-153.223 324,-153.223 324,-153.223 324,-158.223 319.5,-153.223 324,-163.223 324,-163.223"/>
</g>
</g>
</svg>
